<svg width="133" height="99" viewBox="0 0 133 99" fill="none" xmlns="http://www.w3.org/2000/svg">
<g clip-path="url(#clip0_11_111)">
<path d="M119.765 24.3086C105.01 3.04603 73.8411 -5.57898 43.1876 3.71036C26.9821 8.62136 11.357 18.4613 3.61354 37.5145C-10.2287 71.5743 18.8348 82.4521 37.8392 85.919C47.0287 87.5954 55.6836 90.4114 63.5925 94.2454C77.8215 101.143 103.008 107.255 122 78.5231C135.765 57.6981 129.593 38.4715 119.765 24.3086Z" fill="#F2F2F2"/>
<path d="M35.0111 28.2302C34.9689 27.8956 34.8835 27.568 34.7571 27.2555C34.741 27.1964 34.7127 27.1413 34.6742 27.0937C34.6357 27.0462 34.5877 27.0072 34.5333 26.9792C34.4605 26.9603 34.3843 26.9594 34.3112 26.9767L33.1709 27.1516C33.0755 27.1559 32.9841 27.1915 32.9108 27.2529C32.7623 27.4094 32.9085 27.6614 32.904 27.8773C32.8988 28.1201 32.6836 28.3172 32.4501 28.3824C32.2118 28.4307 31.966 28.4276 31.729 28.3735L30.1346 28.1252C30.6042 27.9749 31.0221 27.6954 31.3408 27.3186C31.5506 27.0695 31.6622 26.6045 31.359 26.4865C31.2689 26.4617 31.1749 26.4542 31.082 26.4642C30.3597 26.4699 29.7912 25.8655 29.115 25.6109C28.6821 25.4585 28.2123 25.4472 27.7727 25.5785C27.333 25.7098 26.9461 25.9771 26.6672 26.3421L27.5165 26.3832C27.5964 26.3787 27.6757 26.3999 27.7428 26.4436C27.9289 26.5969 27.6975 26.8913 27.7237 27.1312C27.7578 27.443 28.1709 27.5096 28.4823 27.5411C28.7937 27.5727 29.1888 27.8262 29.039 28.1016C27.4738 28.6419 25.8811 27.0455 24.2373 27.242C23.8213 27.2918 23.4284 27.4555 23.0222 27.5585C20.541 28.1876 17.9758 26.5091 15.4411 26.8646C14.8776 26.9608 14.3238 27.1072 13.7862 27.302C13.4412 27.4155 13.0814 27.5381 12.8307 27.8014C12.5801 28.0646 12.4847 28.5149 12.7221 28.7901C12.0676 28.8441 11.4087 28.7814 10.7761 28.6047C10.9472 28.7 11.0895 28.8397 11.1881 29.0092C11.2867 29.1786 11.338 29.3715 11.3366 29.5676C10.3147 29.7346 9.3198 30.0386 8.37874 30.4714C8.55438 30.7641 8.75952 31.038 8.99095 31.2887L7.6972 32.1216C8.13429 32.2319 8.36028 32.8292 8.1061 33.2022C8.55931 33.0002 8.84019 32.4775 9.32482 32.3715C9.64232 32.3021 9.96539 32.4323 10.2666 32.5545C10.5678 32.6768 10.8988 32.7954 11.2106 32.7036C11.5224 32.6118 11.7524 32.2067 11.5543 31.9486C12.887 31.5589 14.2644 31.3432 15.6522 31.307C15.7593 31.2935 15.8678 31.3142 15.9625 31.366C16.1432 31.4916 16.0957 31.7629 16.0859 31.983C16.0762 32.2031 16.2474 32.4924 16.4437 32.3932C16.2128 32.5939 16.4102 32.9718 16.6318 33.1829C16.8534 33.3939 17.1205 33.6852 16.9848 33.9597C16.9494 34.0314 16.8894 34.0887 16.8553 34.161C16.7547 34.3744 16.9144 34.6233 17.1027 34.765C17.2911 34.9067 17.5218 35.0058 17.6526 35.2021C17.7834 35.3983 17.724 35.7419 17.4901 35.7693L16.8251 34.9233C16.598 35.1593 16.4422 35.4551 16.376 35.7762C17.0811 36.3539 17.1871 37.5295 16.5968 38.2245C16.2952 38.5796 15.8662 38.7954 15.4918 39.0725C15.1174 39.3495 14.7709 39.7439 14.7719 40.2103C14.7735 41.016 14.7078 41.7646 15.0091 42.5116C15.5647 43.8891 16.2061 45.2302 16.9296 46.5269C17.1196 46.8675 17.3652 47.2407 17.7501 47.2993C17.2636 46.1126 16.8258 44.9075 16.4364 43.6839C16.69 43.6849 16.9831 43.7051 17.1317 43.9109C17.2548 44.0814 17.2284 44.3132 17.2666 44.5201C17.3153 44.7206 17.3964 44.9117 17.5068 45.0858L19.8296 49.2323C20.0222 49.576 20.2431 49.9449 20.6111 50.0841C20.8464 50.1731 21.1186 50.1564 21.3352 50.2845C21.5049 50.3849 21.6193 50.5632 21.7923 50.6578C22.2816 50.9253 22.9621 50.4123 23.4194 50.7317C23.5501 50.823 23.6333 50.9681 23.7538 51.0726C24.1761 51.4391 24.8689 51.194 25.3565 51.4674C25.6707 51.6436 25.8335 51.996 26.0011 52.3153C26.4209 53.1153 27.1002 53.899 27.9999 53.9627C28.2825 53.9827 28.5712 53.929 28.8475 53.992C29.1237 54.055 29.3956 54.2966 29.3513 54.577C29.2753 55.0578 29.5123 55.5842 29.4486 56.0667C29.3327 56.9457 28.0886 57.3319 27.9817 58.212C27.9583 58.4047 27.9949 58.6036 27.9491 58.7923C27.893 59.0234 27.7198 59.2117 27.6582 59.4414C27.5415 59.8769 27.8529 60.3103 28.1949 60.6032C28.5369 60.8962 28.9448 61.1488 29.1318 61.5589C29.3294 61.9924 29.2324 62.4978 29.2966 62.97C29.437 64.0008 30.3255 64.765 31.2398 65.2577C31.5184 65.4079 31.8176 65.5532 31.9979 65.8137C32.2332 66.1536 32.2098 66.6017 32.2884 67.0079C32.4808 68.0026 33.3165 68.8222 33.3402 69.8352C33.3571 70.5552 32.9577 71.2084 32.7191 71.8877C32.4954 72.5386 32.4145 73.2302 32.4818 73.9153C32.5491 74.6004 32.7631 75.2628 33.1092 75.8575C33.2876 76.1595 33.5011 76.4442 33.6273 76.7716C33.8526 77.3558 33.7795 78.02 33.9873 78.6107C34.2619 79.3917 35.0165 80.0367 34.9443 80.8616C35.2869 81.5746 36.0434 81.9249 36.8042 82.1371L38.1676 82.5174C38.4286 82.5903 38.7014 82.6637 38.9673 82.6109C39.2331 82.5582 39.4868 82.337 39.4799 82.0655C38.8113 81.9144 38.1213 81.7538 37.5701 81.3455C37.019 80.9372 36.6414 80.2102 36.8506 79.5561C36.9475 79.2528 37.1538 78.9025 36.9577 78.6519C36.8454 78.5084 36.6401 78.471 36.5134 78.34C36.3158 78.1358 36.3837 77.7928 36.5257 77.5466C36.6678 77.3003 36.873 77.0803 36.9303 76.8017C36.9593 76.6459 36.9399 76.4849 36.875 76.3404C36.81 76.1959 36.7025 76.0747 36.5668 75.9932C36.8196 75.8975 37.0495 75.7497 37.2417 75.5593C37.4191 75.3562 37.5011 75.0431 37.3615 74.8122C37.7761 74.8649 38.2655 74.8907 38.5376 74.5729C38.755 74.3191 38.74 73.9397 38.6542 73.6166C38.5683 73.2934 38.4232 72.9796 38.4186 72.6452C39.375 72.6906 40.3334 72.6581 41.2845 72.5478C41.1469 72.0837 40.8344 71.6914 40.4132 71.4543C40.8439 71.3813 41.2363 70.8645 41.3724 70.4485C41.5085 70.0325 41.4738 69.5794 41.3897 69.1498C41.3574 69.0392 41.3529 68.9223 41.3768 68.8096C41.4253 68.6546 41.5771 68.5601 41.7176 68.4793L43.8556 67.2488C43.9832 67.1847 44.0989 67.0992 44.1975 66.9959C44.4215 66.7322 44.3884 66.3342 44.2737 66.0075C44.159 65.6809 43.9752 65.3737 43.9311 65.0303C43.7989 64.0031 44.8961 63.2662 45.2664 62.2993C45.4117 61.9199 45.4413 61.5074 45.4695 61.102C45.4997 60.6665 45.5019 60.1607 45.1683 59.8801C44.8484 59.6111 44.3487 59.6711 44.014 59.4209C43.7072 59.1915 43.6013 58.746 43.2661 58.5607C42.9617 58.3924 42.58 58.4994 42.2415 58.4203C41.6453 58.2809 41.2702 57.5925 40.6614 57.5287C40.3179 57.4927 39.9291 57.661 39.6476 57.4605C39.3995 57.2839 39.3896 56.9289 39.3424 56.6276C39.2596 56.1594 39.0357 55.7278 38.7007 55.3911C38.3657 55.0543 37.9358 54.8285 37.4688 54.744C37.1147 54.6871 36.7291 54.7087 36.4279 54.5137C36.1228 54.3162 35.9829 53.9465 35.7432 53.673C35.357 53.2321 34.7487 53.0755 34.1788 52.9413L31.861 52.3952C31.4495 52.2983 30.9191 52.2469 30.6983 52.6081C30.6329 52.7456 30.5867 52.8915 30.5608 53.0416C30.478 53.3131 30.3115 53.5513 30.0852 53.7221C29.8588 53.8928 29.5843 53.9872 29.3011 53.9917C29.1068 53.6597 28.7921 53.4157 28.4226 53.3106C28.1875 53.2449 27.936 53.2376 27.7118 53.1411C27.5897 53.0814 27.4811 52.9973 27.3925 52.8941C27.304 52.7908 27.2374 52.6706 27.1969 52.5406C27.1563 52.4107 27.1426 52.2738 27.1567 52.1384C27.1707 52.003 27.2122 51.8719 27.2786 51.7532C27.4122 51.5147 27.4638 51.2388 27.4254 50.9681C27.3871 50.6973 27.2608 50.4468 27.0662 50.2551C26.672 49.9005 26.1018 49.8148 25.5733 49.8503C25.4349 49.5476 25.6663 49.2061 25.9157 48.9861C26.1652 48.7661 26.468 48.5499 26.5224 48.2214C26.6078 47.7047 25.9499 47.3122 25.4504 47.4663C24.9509 47.6204 24.632 48.1066 24.4213 48.5859C24.3004 48.8608 24.1976 49.1504 24.0068 49.3823C23.8161 49.6142 23.5089 49.7802 23.2184 49.7058C22.8071 49.6004 22.6482 49.1107 22.5572 48.6952C22.435 48.1377 22.3122 47.5724 22.3378 47.0022C22.3634 46.432 22.5552 45.8465 22.9748 45.4605C23.6585 44.8315 24.7074 44.8931 25.6302 44.9935C25.4122 44.7473 25.466 44.3325 25.6993 44.1008C25.8224 43.9912 25.9704 43.9133 26.1304 43.8739C26.2903 43.8345 26.4574 43.8349 26.6173 43.8748C26.8953 43.9328 27.1458 44.0829 27.3284 44.3009C27.5906 44.6213 27.6652 45.0539 27.8634 45.4175C28.0616 45.7812 28.5073 46.0913 28.872 45.8962C29.1871 45.7277 29.2371 45.2899 29.1587 44.9407C29.0803 44.5916 28.9138 44.252 28.9422 43.8953C28.9964 43.2145 29.7005 42.8048 30.3219 42.5244C30.9433 42.2441 31.6549 41.867 31.7533 41.1913C31.7567 41.059 31.7816 40.9281 31.827 40.8039C31.8959 40.6941 31.9917 40.6038 32.1053 40.5417C33.9188 39.3406 35.7625 38.1249 37.8354 37.4686C37.9432 37.4345 37.9559 37.4725 38.0658 37.4457C38.2196 37.3566 38.1177 37.1102 37.9702 37.0109C37.8227 36.9116 37.6256 36.8355 37.5882 36.6615C37.5607 36.5335 37.6359 36.4079 37.6554 36.2785C37.7035 35.9605 37.3239 35.667 37.0291 35.7941C36.8626 35.5731 37.1921 35.3164 37.4585 35.2429C38.2584 35.0222 39.0796 34.8878 39.908 34.8419C40.0036 34.8266 40.1016 34.8433 40.1868 34.8894C40.3259 34.986 40.3081 35.2075 40.2095 35.3453C40.1109 35.4832 39.9575 35.5698 39.8346 35.6864C39.7004 35.8175 39.6046 35.983 39.5578 36.1649C39.511 36.3467 39.5149 36.538 39.5692 36.7178C40.0017 36.9382 40.4719 37.1652 40.9508 37.0875C41.4298 37.0099 41.855 36.4705 41.6298 36.0398C41.4202 35.6387 40.7904 35.5482 40.6821 35.1086C40.5553 34.5939 41.2824 34.1362 41.1186 33.6321C41.0469 33.4112 40.8272 33.2813 40.6587 33.1219C40.4597 32.9264 40.3244 32.6752 40.2704 32.4012C40.2165 32.1273 40.2464 31.8434 40.3564 31.5868C40.082 31.6352 39.7999 31.6169 39.5339 31.5335C39.268 31.4501 39.0259 31.304 38.8279 31.1075C38.4623 30.7377 38.1706 30.1544 37.6514 30.171C37.175 30.1861 36.7646 30.7432 36.3191 30.5732C36.2095 30.5314 36.0939 30.4463 35.9878 30.4962C35.953 30.5188 35.9237 30.5491 35.9023 30.5847C35.8809 30.6203 35.8679 30.6604 35.8642 30.7018C35.7509 31.2442 35.9457 31.8622 35.6507 32.3309C35.3297 32.8409 34.5872 32.9116 34.198 33.3716C33.9867 33.6212 33.9049 33.9577 33.7107 34.2209C33.5165 34.4841 33.1044 34.6514 32.8713 34.4221C32.9859 34.1861 33.0172 33.9182 32.9601 33.6622C32.903 33.4061 32.7609 33.177 32.5571 33.0123C32.3407 32.8709 32.1075 32.7572 31.8629 32.674C31.5895 32.558 31.3295 32.4128 31.0874 32.2408C30.966 32.1675 30.8675 32.0618 30.8027 31.9356C30.7514 31.7775 30.7583 31.6063 30.8221 31.4528C30.9403 31.1133 31.1488 30.8126 31.425 30.5832C31.7013 30.3537 32.0348 30.2043 32.3896 30.1509C32.6999 30.1086 33.061 30.1235 33.2663 29.8866C33.375 29.7612 33.432 29.5717 33.5897 29.5208C33.6906 29.5005 33.7953 29.5134 33.8882 29.5576L35.0463 29.9661C35.1756 30.0246 35.3178 30.0482 35.4589 30.0345C35.5289 30.0251 35.5927 29.9895 35.6375 29.9348C35.6824 29.8802 35.705 29.8106 35.7008 29.7399C35.6638 29.5472 35.3678 29.4547 35.3948 29.2603C35.4098 29.1973 35.4436 29.1404 35.4917 29.0971C35.9096 28.6513 36.4207 28.3036 36.9885 28.079C37.5562 27.8543 38.1664 27.7582 38.7756 27.7976C38.9217 28.0381 38.6905 28.323 38.4982 28.5284C38.3058 28.7338 38.1513 29.1007 38.3839 29.2588C38.4792 29.3075 38.5853 29.3315 38.6922 29.3284C38.9774 29.367 39.2545 29.4513 39.513 29.5778C39.9132 29.7524 40.3057 29.9433 40.6905 30.1507C40.6565 29.8964 40.6241 29.6286 40.7202 29.3908C40.8164 29.1531 41.0898 28.9666 41.3285 29.0592C41.5586 29.1484 41.6766 29.4537 41.9217 29.4817C42.2487 29.519 42.3777 29.0349 42.2411 28.7348C42.1046 28.4348 41.8342 28.1835 41.8116 27.8545C41.7964 27.6325 41.8807 27.3572 41.7037 27.2228C41.6408 27.1825 41.5693 27.1574 41.495 27.1495L37.077 26.3348C36.8147 26.2864 36.4356 26.3235 36.424 26.5905C36.4175 26.7396 36.5504 26.8871 36.4915 27.0242C36.4287 27.1704 36.2224 27.1571 36.0721 27.2088C35.8389 27.2891 35.7219 27.5666 35.7443 27.8126C35.7853 28.0572 35.8798 28.2896 36.021 28.4932C35.7336 28.3727 35.2985 28.3506 35.0111 28.2302Z" fill="#3F3D56"/>
<path d="M31.4861 24.4719C31.2075 24.3796 30.9073 24.3753 30.6262 24.4596C30.3451 24.544 30.0967 24.7129 29.9146 24.9436C29.8419 25.0396 29.7808 25.1719 29.8417 25.2758C29.929 25.4248 30.1515 25.3659 30.3155 25.3126C30.5565 25.2263 30.8189 25.2201 31.0639 25.2948C31.2179 25.3477 31.3557 25.4414 31.5103 25.4924C31.5856 25.5239 31.6681 25.5344 31.7489 25.5225C31.8296 25.5107 31.9056 25.4771 31.9688 25.4252C32.0749 25.3167 32.0816 25.1481 32.0818 24.9961C32.0892 24.9453 32.0851 24.8934 32.0699 24.8443C32.0547 24.7953 32.0288 24.7502 31.994 24.7124C31.9321 24.6765 31.8625 24.6559 31.7911 24.6523C31.631 24.6226 31.4863 24.5379 31.3819 24.4127" fill="#3F3D56"/>
<path d="M33.0791 24.0275C33.0167 24.0241 32.9546 24.0368 32.8986 24.0645C32.8425 24.0921 32.7946 24.1337 32.7592 24.1853C32.7239 24.2369 32.7024 24.2967 32.6968 24.359C32.6912 24.4214 32.7018 24.4841 32.7273 24.5411C32.9188 24.5935 33.1189 24.6065 33.3155 24.5796C33.4136 24.5643 33.5049 24.5203 33.5781 24.4531C33.6512 24.3859 33.7029 24.2985 33.7266 24.2019C33.4951 24.2441 33.2562 24.1984 33.0565 24.0736" fill="#3F3D56"/>
<path d="M38.4239 23.2852C37.9027 23.3962 37.3965 23.5685 36.9157 23.7986C37.1424 23.8859 37.335 24.0438 37.4653 24.2492C37.5956 24.4545 37.6567 24.6964 37.6394 24.9391C37.6191 25.0323 37.6214 25.129 37.6463 25.2211C37.7017 25.3556 37.8622 25.4061 38.0033 25.4407C38.2568 25.518 38.5215 25.5518 38.7863 25.5408C38.9187 25.5339 39.0474 25.4939 39.1605 25.4246C39.2737 25.3553 39.3678 25.2588 39.4344 25.1439C39.4728 25.0348 39.5178 24.9282 39.5692 24.8246C39.9074 24.3084 40.9122 24.9326 41.2754 24.4337C41.4033 24.2579 41.3916 23.9934 41.5583 23.8541C41.6446 23.7934 41.7446 23.7552 41.8492 23.7429C42.5795 23.5975 43.3172 23.4922 44.0589 23.4275C44.4104 23.3968 44.8685 23.2704 44.8714 22.9169C43.5476 22.6563 42.175 22.8414 40.967 23.4432C40.5317 23.6617 39.9561 24.1212 39.5369 23.8316C39.3799 23.7232 39.3876 23.4312 39.1716 23.3092C38.9507 23.1845 38.6583 23.2353 38.4239 23.2852Z" fill="#3F3D56"/>
<path d="M42.753 24.0965L43.3744 24.2161C43.2601 24.211 43.1459 24.2305 43.0396 24.2731C42.9333 24.3157 42.8373 24.3806 42.758 24.4633C42.6787 24.5461 42.6179 24.6449 42.5797 24.753C42.5415 24.8612 42.5268 24.9763 42.5365 25.0906C43.1184 25.2854 43.7528 25.0958 44.3658 25.1217C44.9788 25.1476 45.692 25.5864 45.5874 26.1922C45.5558 26.3754 45.4502 26.5585 45.5051 26.7361C45.5436 26.8605 45.6531 26.9488 45.7149 27.0635C45.8437 27.3023 45.7408 27.6044 45.5781 27.8216C45.4154 28.0387 45.1968 28.212 45.054 28.4427C44.6988 29.0166 44.9006 29.7586 45.1122 30.3998C45.1733 30.642 45.2863 30.8681 45.4432 31.0623C45.7567 31.3963 46.2674 31.4253 46.7249 31.432C47.0578 31.4369 47.4392 31.4204 47.6498 31.1619C47.9247 30.8244 47.7325 30.2978 47.9134 29.9017C48.0778 29.542 48.4966 29.3877 48.876 29.2782C49.571 29.0777 50.2794 28.9072 50.9365 28.6043C51.7525 28.2282 52.5151 27.6421 53.4119 27.5937C53.6636 27.5801 53.9214 27.6098 54.1638 27.5407C54.4061 27.4717 54.6364 27.2617 54.618 27.0098C54.6023 26.7947 54.4207 26.6367 54.2787 26.4745C54.1368 26.3122 54.0253 26.0628 54.1557 25.8912L56.5065 25.4512C56.3399 24.9961 56.2101 24.3968 56.593 24.1005C56.7311 23.9937 56.9161 23.951 57.0337 23.8217C57.2342 23.6015 57.1334 23.2222 56.902 23.0349C56.6706 22.8476 56.3576 22.8041 56.0612 22.7795C55.0304 22.6937 53.9937 22.7504 52.961 22.8071C50.9422 22.918 48.9233 23.0289 46.9045 23.1398C46.4981 23.1621 46.0289 23.128 45.6561 23.2669C45.3406 23.3846 45.1162 23.6005 44.7553 23.6763C44.0891 23.8164 43.3559 23.7216 42.753 24.0965Z" fill="#3F3D56"/>
<path d="M53.8854 29.0186C53.8221 29.0086 53.7574 29.0233 53.7046 29.0597C53.6696 29.0983 53.6489 29.1476 53.6457 29.1995C53.6056 29.4288 53.6534 29.6647 53.7795 29.8602C53.8437 29.956 53.9324 30.0329 54.0363 30.0829C54.1402 30.1328 54.2556 30.1539 54.3704 30.1441C54.6502 30.1083 54.8564 29.8691 55.1137 29.7524C55.5101 29.5726 57.1939 29.2924 56.0292 28.6619C55.6278 28.4445 55.3684 28.6364 55.0521 28.7795C54.6921 28.964 54.2888 29.0467 53.8854 29.0186V29.0186Z" fill="#3F3D56"/>
<path d="M64.087 23.7405C63.951 23.7962 63.8373 23.8954 63.7635 24.0227C63.7295 24.0874 63.7216 24.1626 63.7414 24.233C63.7613 24.3033 63.8073 24.3633 63.8701 24.4005C63.9209 24.419 63.9747 24.4275 64.0287 24.4257L64.5817 24.4423C64.8166 24.4493 65.1101 24.4995 65.1732 24.7263C65.2201 24.8948 65.1152 25.1112 65.2417 25.2316C65.2961 25.2738 65.3614 25.2993 65.4299 25.3051C65.612 25.352 65.8023 25.3582 65.9871 25.3232C66.3894 25.215 66.178 24.9689 66.3047 24.7498C66.4986 24.4145 66.465 24.6175 66.8067 24.4253C67.059 24.2834 67.385 24.026 67.1745 23.6643C66.8082 23.0354 64.6274 23.4703 64.087 23.7405Z" fill="#3F3D56"/>
<path d="M75.0017 23.4243L74.6806 23.4672C73.9565 23.5641 73.2283 23.6618 72.5309 23.8797C72.8328 23.9993 73.1495 24.0772 73.4724 24.1112C73.6501 24.1199 73.8266 24.1451 73.9997 24.1863C74.3077 24.2782 74.6181 24.5155 74.9157 24.394C75.1003 24.3186 75.1605 24.1261 75.3133 24.024C75.4189 23.9536 75.8192 23.8395 75.8639 23.7684C76.2257 23.1935 75.2798 23.3871 75.0017 23.4243Z" fill="#3F3D56"/>
<path d="M76.4118 24.8868C75.9828 25.1271 75.5849 25.4192 75.2268 25.7564C75.0759 25.8985 74.9218 26.0753 74.9355 26.2823C74.9537 26.5575 75.2462 26.7171 75.4996 26.8247L76.5261 27.2602C76.6507 27.0843 76.5367 26.8415 76.408 26.6687C76.2793 26.4958 76.1263 26.2958 76.1832 26.0878C76.2481 25.8505 76.5369 25.7696 76.7791 25.7287C77.1737 25.6621 78.2381 25.6674 78.1102 25.0302C77.9595 24.2793 76.8079 24.6649 76.4118 24.8868Z" fill="#3F3D56"/>
<path d="M76.2053 67.3793C76.1076 67.6628 76.0983 67.9968 76.2674 68.2444C76.457 68.5221 76.8367 68.6257 77.1651 68.5552C77.4921 68.468 77.7837 68.2802 77.9986 68.0182C78.1951 67.7987 78.3568 67.5502 78.478 67.2815C78.6471 66.8627 78.7663 66.4253 78.8333 65.9785L79.152 64.3016C79.2232 63.9268 79.2205 62.7778 78.5331 63.1522C78.3453 63.2544 77.9105 64.0619 77.7138 64.2909C77.3591 64.7036 77.3121 65.104 77.1254 65.604C76.8916 66.2302 76.4215 66.7521 76.2053 67.3793Z" fill="#3F3D56"/>
<path d="M112.511 75.9608C112.286 75.8728 112.068 75.7687 111.858 75.6492C111.647 76.2292 111.535 76.8405 111.526 77.4576L113.066 76.5848C113.297 76.4535 113.56 76.2711 113.555 76.0046C113.557 75.9717 113.55 75.9388 113.535 75.9094C113.52 75.88 113.497 75.8553 113.469 75.8377C113.435 75.8239 113.398 75.8195 113.362 75.825C113.133 75.844 112.925 75.9566 112.71 76.0348C112.495 76.1131 112.243 76.1544 112.045 76.0383" fill="#3F3D56"/>
<path d="M120.63 76.4789C120.461 76.525 120.296 76.5843 120.136 76.6564C119.783 76.8365 119.543 77.1785 119.225 77.4157C118.921 77.6427 118.555 77.7673 118.195 77.8885C118.09 77.9822 118.138 78.1708 118.253 78.2531C118.376 78.3234 118.518 78.3553 118.659 78.3446C119.033 78.3529 119.426 78.3565 119.753 78.1757C119.938 78.056 120.11 77.9188 120.268 77.7661C120.651 77.4464 121.11 77.2354 121.565 77.0315C121.73 76.9689 121.883 76.8773 122.016 76.7608C122.302 76.4788 122.322 76.0437 121.91 75.9477C121.577 75.8702 120.947 76.3762 120.63 76.4789Z" fill="#3F3D56"/>
<path d="M124.217 74.1306C124.236 73.9366 124.21 73.7408 124.142 73.5582C124.074 73.3756 123.965 73.2108 123.824 73.0764C123.82 73.4647 123.808 73.8783 123.59 74.1994C123.435 74.4281 123.192 74.5827 123.022 74.8006C122.852 75.0185 122.776 75.3639 122.976 75.5551C123.103 75.6524 123.258 75.706 123.419 75.708C123.816 75.7549 124.276 75.781 124.554 75.4935C124.706 75.3365 124.78 75.1041 124.966 74.9887C125.035 74.9596 125.096 74.9154 125.146 74.8592C125.223 74.7372 125.101 74.5765 124.964 74.5325C124.827 74.4886 124.676 74.5092 124.539 74.4675C124.401 74.4257 124.275 74.2706 124.345 74.1451" fill="#3F3D56"/>
<path d="M117.841 59.8953C117.633 59.9461 117.417 59.9588 117.204 59.9329C116.851 59.8678 116.575 59.6007 116.29 59.3817C115.611 58.8639 114.786 58.5751 113.934 58.5567C113.158 58.542 112.375 58.7527 111.613 58.6057C111.663 58.8831 111.9 59.0912 112.153 59.2149C112.405 59.3386 112.684 59.4008 112.938 59.522C113.345 59.718 113.668 60.0543 113.847 60.4694C113.929 60.6607 113.98 60.869 114.104 61.036C114.358 61.3776 114.838 61.4525 115.261 61.4246C115.814 61.3882 116.391 61.229 116.904 61.4352C117.298 61.593 117.579 61.9378 117.907 62.2059C118.235 62.474 118.698 62.673 119.075 62.4796C118.683 62.3526 118.342 62.1035 118.102 61.7687C117.862 61.4338 117.735 61.0308 117.739 60.6185C118.109 60.6525 119.174 60.6394 119.116 60.0099C119.068 59.4764 118.159 59.8377 117.841 59.8953Z" fill="#3F3D56"/>
<path d="M113.005 64.2356C113.071 63.8749 113.43 63.5563 113.318 63.2071C113.241 62.9657 112.961 62.8464 112.708 62.8405C112.455 62.8345 112.207 62.91 111.954 62.9172C111.789 62.9084 111.624 62.9107 111.46 62.9242C110.958 63.0069 110.648 63.5344 110.175 63.7219C109.887 63.8359 109.564 63.8141 109.265 63.893C108.585 64.0719 108.155 64.7152 107.681 65.2339C106.913 66.0682 105.914 66.6523 104.811 66.9107C104.425 67.0004 104.01 67.0577 103.703 67.3091C103.296 67.642 103.196 68.2127 103.106 68.731C102.856 70.1623 102.474 71.5673 101.965 72.9279L103.578 73.1343C103.884 73.1736 104.202 73.212 104.498 73.1209C104.712 73.0398 104.916 72.9312 105.103 72.7979C105.821 72.3509 106.625 72.0601 107.463 71.9442C107.885 71.8861 108.328 71.8754 108.725 72.0328C109.121 72.1901 109.461 72.5469 109.494 72.9729C109.666 72.9195 109.849 72.9137 110.023 72.9562C110.197 72.9987 110.357 73.0879 110.485 73.2143C110.738 73.4722 110.903 73.8031 110.958 74.1603C111 74.3814 111.043 74.6464 111.248 74.7392C111.415 74.8149 111.606 74.7333 111.789 74.7187C112.409 74.669 112.924 75.3936 113.533 75.2688C114.187 75.135 114.348 74.1539 114.985 73.9573C115.352 73.8445 115.866 73.9817 116.041 73.6403C116.196 73.3393 115.887 72.992 115.919 72.655C115.958 72.2401 116.447 72.0639 116.823 71.8869C118.121 71.2765 118.737 69.5257 118.108 68.2344C117.735 67.4693 117.002 66.8671 116.867 66.0266C116.762 65.3799 117.017 64.6258 116.605 64.1168C116.396 63.8579 116.042 63.715 115.917 63.406C115.839 63.2115 115.87 62.9909 115.828 62.7854C115.786 62.58 115.607 62.3651 115.405 62.4183C114.817 62.5729 114.629 64.3921 114.315 64.8341C113.837 65.506 112.855 65.0635 113.005 64.2356Z" fill="#3F3D56"/>
<path d="M102.143 60.5826C101.942 60.5262 101.723 60.4706 101.531 60.5512C101.338 60.6319 101.226 60.915 101.38 61.0555C102.588 61.0083 103.804 60.9615 105.002 61.1259C106.382 61.3153 107.748 61.7846 109.134 61.6465C108.342 61.4124 107.537 61.2252 106.724 61.086L105.367 60.8262C105.002 60.7498 104.635 60.6928 104.265 60.6555C103.49 60.5915 102.904 60.7965 102.143 60.5826Z" fill="#3F3D56"/>
<path d="M103.353 56.3658C103.252 56.3574 103.128 56.3502 103.076 56.4366C103.027 56.5192 103.083 56.6283 103.057 56.7209C103.02 56.8474 102.855 56.8797 102.725 56.8624C102.595 56.8452 102.454 56.804 102.338 56.8669C102.28 56.907 102.236 56.965 102.213 57.0322C102.19 57.0994 102.19 57.1723 102.212 57.2398C102.259 57.3739 102.335 57.4958 102.435 57.5967C102.606 57.8122 102.8 58.0076 103.015 58.1793C103.43 58.4864 103.992 58.6344 104.254 59.0803C104.291 59.1668 104.348 59.2432 104.419 59.3036C104.545 59.3833 104.709 59.3226 104.844 59.2608L105.318 59.0438C105.403 59.013 105.479 58.961 105.539 58.8928C105.648 58.7456 105.581 58.5363 105.49 58.3778C105.399 58.2192 105.283 58.0551 105.303 57.8733C105.337 57.5491 105.753 57.4251 105.924 57.1478C106.097 56.8682 105.984 56.508 106.004 56.1799C106.028 55.7963 106.268 55.2973 105.881 55.0107C105.552 54.7671 105.238 54.9921 105.002 55.2611C104.504 55.8282 104.268 56.4424 103.353 56.3658Z" fill="#3F3D56"/>
<path d="M106.229 50.6338C106.391 50.9442 106.728 51.1294 106.904 51.4317C107.096 51.7594 107.074 52.1827 107.281 52.5003C107.494 52.8262 107.922 52.9992 108.042 53.3698C108.172 53.7744 107.876 54.2661 108.112 54.6197C108.156 54.6775 108.211 54.7255 108.275 54.7607C108.338 54.7959 108.408 54.8175 108.481 54.8241C108.553 54.8308 108.626 54.8223 108.694 54.7993C108.763 54.7763 108.826 54.7392 108.88 54.6904C108.979 54.582 109.033 54.439 109.028 54.2918C109.024 54.1447 108.962 54.0051 108.857 53.9027C108.717 53.7752 108.517 53.7201 108.4 53.5712C108.34 53.4853 108.299 53.3867 108.282 53.2828C108.219 52.9832 108.229 52.6726 108.312 52.3778C108.343 52.303 108.351 52.2205 108.335 52.1411C108.282 51.9883 108.076 51.9775 107.931 51.9066C107.602 51.7456 107.61 51.2803 107.667 50.9178C107.629 51.1591 106.771 50.7488 106.681 50.6121C106.503 50.3406 106.6 49.8169 106.565 49.5168C106.18 49.7028 106.031 50.2543 106.229 50.6338Z" fill="#3F3D56"/>
<path d="M97.5887 55.4097C97.4304 55.2321 97.192 55.0463 96.9798 55.1534C96.8179 55.2351 96.7733 55.4596 96.8368 55.6298C96.9141 55.7951 97.0331 55.9373 97.1821 56.0423C97.6244 56.4079 98.1006 56.7378 98.4864 57.1626C99.1769 57.923 99.5427 58.949 100.294 59.6495C100.445 59.8119 100.644 59.9203 100.863 59.9581C101.081 59.9785 101.327 59.8382 101.352 59.6195C101.373 59.4393 101.248 59.278 101.125 59.1445C100.833 58.8265 100.514 58.5339 100.239 58.2016C100.111 58.074 100.032 57.9068 100.012 57.7274C100.011 57.5486 100.173 57.3613 100.346 57.4056C100.136 57.3518 99.9801 57.0006 99.6713 56.9346C99.4133 56.8794 99.3509 57.0395 99.0439 56.9075C98.4583 56.6558 97.9988 55.8697 97.5887 55.4097Z" fill="#3F3D56"/>
<path d="M111.349 38.1187C111.181 38.0686 111.016 38.0095 110.854 37.9416C110.419 37.8108 109.844 38.131 109.902 38.5822C109.941 38.882 110.219 39.0841 110.373 39.3442C110.601 39.7298 110.54 40.2189 110.42 40.6508C110.391 40.7845 110.335 40.9109 110.256 41.0226C110.145 41.1404 110.013 41.2358 109.866 41.3034C109.279 41.6334 108.761 42.0743 108.341 42.6016C108.296 42.6503 108.264 42.7104 108.249 42.7756C108.228 42.9279 108.381 43.0389 108.468 43.1659C108.659 43.4482 108.521 43.828 108.54 44.169C108.537 44.2172 108.546 44.2654 108.567 44.3089C108.588 44.3525 108.62 44.39 108.659 44.4178C108.775 44.4767 108.912 44.3767 108.974 44.2629C109.182 43.8851 109.026 43.2788 109.416 43.0967C109.49 43.0622 109.579 43.0477 109.629 42.9827C109.707 42.8796 109.631 42.7269 109.671 42.6037C109.73 42.4187 109.983 42.4104 110.177 42.4186C110.511 42.4326 110.844 42.388 111.163 42.287C111.288 42.2572 111.401 42.1914 111.489 42.0976C111.606 41.9516 111.596 41.7442 111.572 41.5586C111.456 40.6337 111.163 39.7398 110.711 38.925C111.054 38.9689 111.427 39.0069 111.723 38.8279C111.889 38.7276 112.087 38.4278 112.005 38.2237C111.875 37.901 111.64 38.1726 111.349 38.1187Z" fill="#3F3D56"/>
<path d="M67.3946 43.2054C67.4357 43.426 67.476 43.6582 67.4039 43.8705C67.3318 44.0829 67.1049 44.2603 66.8907 44.1953C66.7244 44.1448 66.6284 43.9773 66.5103 43.8495C65.8538 43.1393 64.3725 43.5505 63.9669 42.6718C63.8014 42.3131 63.9139 41.8835 63.801 41.5049C63.7298 41.2861 63.5881 41.0972 63.3981 40.9679C63.2081 40.8386 62.9806 40.7761 62.7514 40.7904C62.5424 40.8206 62.3389 40.8815 62.1474 40.9711C60.8651 41.4857 59.5189 41.8231 58.1458 41.974C57.8848 41.99 57.6267 42.037 57.3769 42.1142C56.8131 42.3191 56.4279 42.8429 56.1537 43.3774C55.8796 43.9119 55.6772 44.4905 55.3096 44.9654C54.9233 45.4645 54.382 45.814 53.8771 46.192C53.6826 46.3176 53.5206 46.4877 53.4045 46.6883C53.295 46.9135 53.3012 47.1755 53.3097 47.4258L53.4129 50.4666C53.4262 50.8577 53.4428 51.2628 53.6175 51.6128C53.8357 52.0498 54.2666 52.3361 54.5655 52.7222C54.8706 53.119 55.0295 53.6092 55.0154 54.1099C55.009 54.3112 54.989 54.5493 55.1455 54.6757C55.2406 54.7375 55.352 54.7696 55.4654 54.7679L59.57 55.1045C60.292 55.1638 61.0922 55.2611 61.5636 55.8124C61.786 56.0725 61.9647 56.4467 62.3055 56.4746C62.4517 56.4865 62.5939 56.4264 62.7401 56.4148C63.109 56.3855 63.433 56.6661 63.6375 56.9751C63.947 57.4461 64.0875 58.0085 64.0359 58.57C64.0023 58.9225 63.8933 59.2652 63.8698 59.6185C63.7803 60.9628 64.9175 62.1308 64.9396 63.4779C64.9525 64.2703 64.5772 65.0107 64.2112 65.7132C64.8019 66.6099 64.3182 67.8039 64.5533 68.8522C64.7764 69.8467 65.6039 70.6253 65.8101 71.6234C65.9045 72.0804 65.91 72.6427 66.3121 72.8781C66.4885 72.9643 66.6841 73.0035 66.88 72.992C68.062 73.0061 69.2304 72.7395 70.2898 72.2141C70.787 71.9669 71.3023 71.5978 71.3891 71.0484C71.4592 70.6054 71.235 70.1098 71.4631 69.7239C71.7321 69.269 72.421 69.3051 72.8166 68.9554C73.4585 68.3881 72.958 67.3062 73.2181 66.489C73.4518 65.7546 74.2566 65.3644 74.6555 64.7051C74.8124 64.4216 74.9251 64.1157 74.9895 63.7979C75.1722 63.0385 75.286 62.2641 75.3293 61.4841C75.34 61.0103 75.3748 60.5372 75.4338 60.0669C75.8639 57.3893 78.5054 55.5964 79.363 53.0241C79.4449 52.7785 79.4834 52.4513 79.2653 52.3123C79.1359 52.2504 78.9893 52.2351 78.85 52.2687L76.9579 52.5078C76.7228 52.5375 76.4737 52.5652 76.2579 52.4674C76.0421 52.3696 75.8874 52.096 76.0019 51.8882C76.3232 51.3048 75.6622 50.5677 75.3685 49.9699C74.5776 48.3602 73.6357 46.8295 72.5556 45.3985C72.4865 45.3249 72.4432 45.2307 72.4323 45.1302L72.9693 45.1481C72.788 44.4962 72.4889 43.7829 71.8569 43.5445C71.5009 43.4101 71.1065 43.4566 70.7266 43.4774C69.6383 43.537 68.4717 43.3723 67.3946 43.2054Z" fill="#3F3D56"/>
<path d="M70.7275 28.5164C71.0122 28.8195 71.3314 29.1407 71.7434 29.1936C72.4711 29.2869 72.9943 28.5327 73.3275 27.8777C73.3398 28.0447 73.4167 28.2003 73.5417 28.3114C73.6667 28.4224 73.8301 28.4803 73.997 28.4725C74.1766 28.4422 74.3481 28.3751 74.5006 28.2752C75.9424 27.4856 77.5574 27.0672 79.2005 27.0577C79.1848 26.933 79.2156 26.8068 79.2872 26.7035C79.3588 26.6003 79.466 26.5272 79.5881 26.4985C79.9222 26.4322 80.2231 26.7216 80.3843 27.0223C80.5455 27.3229 80.6459 27.6714 80.902 27.8965C81.158 28.1215 81.6537 28.1117 81.7549 27.7858C81.8519 27.4729 81.5267 27.2061 81.2565 27.0217C80.9862 26.8372 80.7014 26.4958 80.8834 26.2236C82.2639 25.9173 83.653 25.6099 85.0657 25.5491C85.3062 25.5575 85.5459 25.5161 85.7697 25.4275C85.9852 25.3216 86.1564 25.0811 86.0985 24.8477C85.7902 24.9204 85.4673 24.8993 85.171 24.7873C84.8747 24.6753 84.6184 24.4774 84.4348 24.2189C86.3949 24.0568 88.4798 23.9186 90.217 24.8429C90.4254 25.2914 89.363 25.6645 89.6472 26.069C89.7379 26.198 89.9196 26.2131 90.077 26.216C91.2842 26.2385 92.4983 26.2605 93.6919 26.0779C94.128 26.0111 94.5686 25.9169 95.0065 25.971C95.7359 26.0612 96.3597 26.5489 97.0773 26.7079C97.3694 26.7726 97.6969 26.7748 97.9431 26.6046C98.1893 26.4343 98.2951 26.0467 98.0934 25.8254C98.769 25.1618 99.8903 25.3263 100.782 25.644C101.673 25.9617 102.517 26.474 103.461 26.5448C104.137 26.5956 104.823 26.4132 105.492 26.5291C105.912 26.602 106.303 26.7892 106.713 26.9043C107.49 27.1219 108.311 27.076 109.117 27.0864C111.174 27.1142 113.209 27.5193 115.12 28.2818C115.369 28.3629 115.597 28.4978 115.788 28.6769C115.965 28.8677 116.056 29.1643 115.937 29.3963L113.962 29.1071C114.148 29.4742 114.629 29.5368 115.02 29.6635C115.411 29.7901 115.816 30.2228 115.581 30.5605C115.158 30.4254 114.774 30.8498 114.56 31.2403C114.346 31.6308 114.085 32.0985 113.641 32.1223C113.244 32.1436 112.763 31.8044 112.504 32.1072C112.862 32.5598 113.168 33.0509 113.418 33.5715C113.674 34.1059 113.856 34.7793 113.51 35.2602C113.456 35.346 113.373 35.4102 113.277 35.4417C112.994 35.5134 112.81 35.1669 112.608 34.957C112.352 34.6924 111.966 34.6174 111.62 34.4933C111.275 34.3693 110.91 34.1251 110.883 33.758C110.866 33.5296 110.987 33.3173 111.075 33.1062C111.224 32.7504 111.289 32.365 111.266 31.9799C111.246 31.67 111.16 31.3477 110.938 31.1313C110.716 30.9148 110.332 30.8461 110.094 31.0444C109.983 31.1369 109.893 31.2849 109.749 31.2904C109.494 31.3002 109.298 30.8543 109.092 31.0065C109.117 31.1687 109.083 31.3342 108.998 31.4741C108.385 32.0081 107.444 31.7822 106.654 31.9708C106.278 32.0786 105.918 32.236 105.584 32.4389C105.459 32.4924 105.353 32.5819 105.279 32.696C105.18 32.888 105.289 33.1339 105.463 33.2616C105.647 33.3749 105.854 33.4457 106.069 33.469C107.032 33.6518 108.009 33.9347 108.769 34.5546C109.53 35.1744 110.028 36.1991 109.788 37.1512L107.889 35.3328C107.961 36.0963 108.002 36.8619 108.011 37.6297C108.024 37.7796 108.003 37.9304 107.951 38.0715C107.816 38.3712 107.449 38.472 107.127 38.5381C107.038 38.5552 106.953 38.591 106.878 38.6432C106.804 38.6954 106.741 38.7628 106.694 38.8411C106.647 38.9194 106.618 39.0067 106.607 39.0972C106.596 39.1878 106.605 39.2797 106.632 39.3667C106.746 39.7399 107.031 40.0308 107.292 40.3207C107.553 40.6106 107.809 40.9401 107.843 41.3289C107.878 41.7178 107.585 42.156 107.196 42.129C106.902 42.1085 106.683 41.8442 106.557 41.5765C106.432 41.3087 106.357 41.0104 106.168 40.7829C105.597 40.0942 104.313 40.3893 103.802 39.6551C103.671 39.8034 103.581 39.9827 103.539 40.1759C103.497 40.3691 103.505 40.5699 103.562 40.7591C103.8 40.6097 104.126 40.7485 104.305 40.9656C104.484 41.1826 104.569 41.4609 104.709 41.7047C104.899 42.0337 105.2 42.3254 105.227 42.7043C105.22 42.8477 105.222 42.9913 105.234 43.1343C105.281 43.3639 105.475 43.5288 105.609 43.7207C105.922 44.1673 105.906 44.7809 105.705 45.2876C105.503 45.7943 105.141 46.2178 104.783 46.6283C104.157 47.3453 103.518 48.0581 102.776 48.6536C102.565 48.8235 102.339 48.9906 102.207 49.2281C102.075 49.4657 102.068 49.7991 102.271 49.9798C102.126 49.9871 101.866 50.0586 101.721 50.0658C101.67 49.4829 101.659 48.8971 101.687 48.3127C101.115 48.0373 100.499 48.7747 100.573 49.4065C100.647 50.0384 101.103 50.5454 101.427 51.0921C101.665 51.4918 101.841 51.9579 101.762 52.4163C101.683 52.8747 101.274 53.2975 100.812 53.2571C100.076 53.1928 99.7687 52.1345 99.0402 52.0134C98.976 51.9983 98.9086 52.005 98.8485 52.0325C98.7404 52.092 98.7216 52.2369 98.7155 52.3604C98.6857 52.9663 98.6599 53.5963 98.896 54.155C99.2413 54.9723 100.133 55.6587 99.9462 56.5261C98.9381 56.0566 98.414 54.9237 98.1761 53.8356C97.9381 52.7474 97.8984 51.6051 97.4719 50.5764C97.148 50.9924 96.4671 50.6485 96.1712 50.2121C95.8906 49.7983 95.7179 49.3196 95.4457 48.9003C95.1735 48.4809 94.7565 48.1054 94.2578 48.0824C93.7349 48.0582 93.2815 48.4177 92.8827 48.7575C92.5548 49.0368 92.2181 49.3272 92.0264 49.7134C91.7475 50.2753 91.8205 50.9378 91.807 51.5652C91.7925 52.2436 91.649 52.9593 91.1877 53.4559C90.7263 53.9526 89.8747 54.1255 89.3658 53.678C89.1001 53.4443 88.9715 53.0952 88.8569 52.7601C88.3046 51.1447 87.8446 49.4992 87.4792 47.8314C87.3937 48.212 87.0602 48.7027 86.7415 48.4784C86.67 48.4181 86.6121 48.3434 86.5716 48.259C85.9772 47.2495 84.8764 46.6439 83.7643 46.2809C82.6521 45.9178 81.482 45.7484 80.3822 45.3494C79.7658 45.1257 79.1772 44.8319 78.6277 44.4736C78.4876 44.6799 78.4059 44.9202 78.391 45.1692C78.3762 45.4182 78.4288 45.6666 78.5434 45.8881C78.7873 46.321 79.3394 46.5714 79.812 46.4201C80.0562 46.3419 80.2624 46.172 80.5048 46.0881C80.7471 46.0042 81.0723 46.0454 81.1783 46.2794C81.2797 46.5033 81.1264 46.7742 81.2024 47.008C81.3183 47.3641 81.8542 47.3915 82.0416 47.7156C82.1811 47.9567 82.0663 48.2769 81.8672 48.4714C81.6681 48.666 81.4025 48.7727 81.1595 48.9081C80.3709 49.3475 79.8101 50.0977 79.121 50.6813C78.4318 51.2649 77.4595 51.691 76.6382 51.3166C76.8339 50.3232 75.653 49.5938 75.4358 48.6049C75.3643 48.2794 75.4014 47.9336 75.2993 47.6164C75.1515 47.1571 74.7449 46.8414 74.4113 46.4933C74.0067 46.0666 73.6915 45.563 73.4843 45.0122C73.2771 44.4614 73.1821 43.8747 73.2049 43.2865C73.2229 42.8778 73.2978 42.4624 73.2049 42.064C73.112 41.6656 72.7828 41.28 72.375 41.2981C71.4434 41.3393 70.2699 41.4088 69.7812 40.613C69.6067 40.329 69.5308 39.913 69.783 39.6954C69.9609 39.5419 70.2235 39.5564 70.4572 39.5794L72.5561 39.7863C73.047 39.8347 73.5776 39.8746 73.9989 39.6174C74.4202 39.3603 74.6027 38.6776 74.2126 38.375C73.9276 38.154 73.417 38.1659 73.3341 37.8144C73.2651 37.5217 73.5885 37.1895 73.4138 36.9449C73.2886 36.7695 73.0071 36.8181 72.8365 36.9496C72.6659 37.0811 72.5421 37.2734 72.3512 37.373C72.0163 37.5477 71.6161 37.3815 71.2558 37.2685C70.8954 37.1555 70.4124 37.1459 70.2376 37.4813C70.0422 37.8563 70.411 38.3478 70.217 38.7237C69.9605 39.2206 69.092 38.9377 68.7318 39.3651C68.3185 39.8556 69.0131 40.5869 68.8737 41.2135C68.6957 41.3018 68.4979 41.3424 68.2997 41.3312C68.1014 41.3201 67.9094 41.2576 67.7425 41.1498C67.5782 41.0379 67.4474 40.8834 67.3638 40.7029C67.2802 40.5224 67.2469 40.3225 67.2676 40.1246C67.3021 39.8428 67.4488 39.555 67.3505 39.2887C67.2711 39.0733 67.0553 38.9451 66.8548 38.8341L64.8151 37.7046C64.6257 38.0566 64.8651 38.493 65.1646 38.7574C65.464 39.0218 65.839 39.221 66.0357 39.569C66.1601 39.8101 66.188 40.0896 66.1137 40.3506C66.0393 40.6116 65.8684 40.8344 65.6357 40.9733C65.6065 40.9935 65.5734 41.0071 65.5385 41.0132C65.5036 41.0193 65.4678 41.0177 65.4335 41.0087C65.401 40.9895 65.3726 40.964 65.3501 40.9336C65.3276 40.9033 65.3113 40.8687 65.3024 40.832C64.9425 39.9091 64.4022 38.9991 63.5384 38.517C62.6745 38.0349 61.4333 38.1341 60.8668 38.9462C60.7322 39.1391 60.6419 39.359 60.5247 39.5629C59.902 40.6464 58.567 41.1595 57.3197 41.126C57.1977 41.1327 57.0763 41.1042 56.9701 41.0436C56.7685 40.9041 56.7776 40.6081 56.8084 40.3645L56.9394 39.331C56.9656 39.1234 57.0037 38.894 57.1677 38.7645C57.3987 38.5819 57.7321 38.6971 58.0263 38.6929C58.2493 38.6824 58.4636 38.6035 58.6403 38.4669C58.817 38.3302 58.9474 38.1424 59.014 37.929C59.0735 37.7134 59.0731 37.4857 59.0129 37.2703C58.9528 37.0549 58.8351 36.8601 58.6726 36.7068C58.5377 36.5799 58.3567 36.4204 58.4279 36.2493C58.4564 36.202 58.4948 36.1614 58.5405 36.1306C58.5863 36.0997 58.6382 36.0793 58.6926 36.0707C59.2212 35.9169 59.7797 35.8765 60.2995 35.695C60.8192 35.5136 61.3233 35.1422 61.4464 34.6046C61.4841 34.4399 61.5013 34.2403 61.6489 34.1586C61.723 34.1273 61.8026 34.111 61.883 34.1107C62.1648 34.0705 62.4214 33.9261 62.6022 33.7058C62.7831 33.4856 62.8751 33.2055 62.8602 32.9207C63.1093 32.7462 63.4582 32.8745 63.6992 33.0601C63.9402 33.2456 64.1529 33.4907 64.4462 33.5706C64.9926 33.7197 65.5207 33.2348 66.087 33.2326C66.3251 33.2316 66.5717 33.316 66.7957 33.2351C67.0228 33.1531 67.1585 32.9265 67.3328 32.7591C67.5071 32.5917 67.813 32.4897 67.9739 32.67L67.8369 31.6525C68.1129 31.7224 68.4007 31.7323 68.6809 31.6816C68.961 31.6308 69.2271 31.5206 69.4613 31.3582L67.6898 30.7584C67.6281 30.743 67.5712 30.7125 67.5241 30.6696C67.3953 30.5307 67.5232 30.3141 67.628 30.1561C67.8785 29.7782 67.9206 29.1556 67.5086 28.9675C67.2273 28.8391 66.9045 28.9932 66.6346 29.144L65.3416 29.8665C65.3005 30.1128 65.6011 30.2524 65.7873 30.4183C65.9 30.5186 65.9798 30.6508 66.0161 30.7974C66.0525 30.9441 66.0437 31.0983 65.991 31.2398C65.9383 31.3814 65.8441 31.5036 65.7207 31.5905C65.5974 31.6774 65.4508 31.7249 65.3 31.7268C65.3852 31.8377 65.4443 31.9664 65.4731 32.1034C65.5019 32.2403 65.4996 32.382 65.4663 32.5179L64.5964 32.5806C64.4987 32.6003 64.3973 32.5805 64.3142 32.5254C64.2211 32.4426 64.2338 32.2975 64.2122 32.1747C64.1602 31.8782 63.8705 31.6705 63.5749 31.6172C63.2793 31.5639 62.9769 31.6322 62.6841 31.6997C62.5599 31.7445 62.4234 31.7413 62.3013 31.6908C62.2312 31.6452 62.178 31.5779 62.1498 31.4992C62.0214 31.1874 62.1414 30.8209 62.3475 30.5542C62.5536 30.2875 62.8358 30.0926 63.0892 29.8706C63.6952 29.3378 64.1404 28.6458 64.3746 27.8727C64.8535 27.6716 65.3493 27.3984 65.8282 27.1973C66.5665 26.8227 67.3945 26.662 68.2191 26.7331L69.8409 26.7642C70.3211 26.7734 70.8143 26.7851 71.2583 26.9686C71.7023 27.152 72.0925 27.5488 72.1231 28.0291C72.1324 28.0835 72.1277 28.1393 72.1095 28.1914C72.0913 28.2434 72.0602 28.29 72.0191 28.3267C71.9564 28.361 71.8854 28.3771 71.8141 28.3731C71.3662 28.3888 71.1753 28.5006 70.7275 28.5164Z" fill="#3F3D56"/>
<path d="M57.8002 33.6101C57.8635 33.5499 57.9091 33.4735 57.932 33.3891C57.9548 33.3047 57.954 33.2157 57.9296 33.1317C57.7754 33.0721 57.6076 33.0568 57.4452 33.0875C57.2828 33.1183 57.1322 33.1938 57.0104 33.3057C56.9143 33.4031 56.8315 33.5128 56.7641 33.6319C56.551 33.9804 56.3625 34.3966 56.486 34.786C56.4961 34.8285 56.5145 34.8685 56.5402 34.9038C56.5659 34.939 56.5984 34.9688 56.6357 34.9913C56.6911 35.0135 56.7508 35.0229 56.8103 35.0187C57.045 35.0184 57.2796 35.0039 57.5126 34.9753C57.6557 34.9578 57.822 34.9173 57.8773 34.7839C57.95 34.6085 57.774 34.41 57.8253 34.2271C57.8591 34.1454 57.9102 34.072 57.9752 34.0121C58.0074 33.9819 58.0322 33.9446 58.0475 33.9032C58.0629 33.8618 58.0684 33.8173 58.0636 33.7734C58.0429 33.6876 57.9118 33.6389 57.8646 33.7134" fill="#3F3D56"/>
<path d="M59.0176 32.0284C58.809 31.9804 58.594 31.9669 58.3811 31.9883C58.334 31.9869 58.2874 31.9976 58.2455 32.0192C58.2049 32.0492 58.1755 32.0919 58.1619 32.1405C58.117 32.2852 58.128 32.4415 58.1929 32.5783C58.2578 32.7151 58.3717 32.8225 58.512 32.8789C58.5885 32.8965 58.6617 32.926 58.7291 32.9663C58.9091 33.1063 58.7943 33.3924 58.8284 33.6181C58.8667 33.8716 59.1115 34.0844 59.0666 34.3368C59.0313 34.5357 58.8193 34.6931 58.8535 34.8922C58.8892 35.1007 59.1532 35.1634 59.3637 35.1801C59.4856 35.2015 59.6112 35.1871 59.7252 35.1386C59.8394 35.0603 59.9206 34.9424 59.9532 34.8076C60.0394 34.5506 60.0756 34.2794 60.0599 34.0088C60.059 33.8857 60.0281 33.7646 59.97 33.6562C59.9066 33.5703 59.8364 33.4896 59.7599 33.4151C59.3567 32.9451 59.7813 32.2441 59.0176 32.0284Z" fill="#3F3D56"/>
<path opacity="0.8" d="M112.039 68.8468C112.039 68.8468 81.1571 51.0827 67.862 54.4486C67.862 54.4486 39.6858 57.4872 36.4204 64.1721C36.4204 64.1721 27.4637 36.1235 24.1982 35.1885" stroke="#6C63FF" stroke-width="2" stroke-miterlimit="10"/>
<path opacity="0.8" d="M36.4204 64.172C41.5985 50.3347 88.2478 35.0015 88.2478 35.0015C81.6236 36.6844 67.862 54.4485 67.862 54.4485C67.862 54.4485 38.7528 33.2251 24.1982 35.1885C24.1982 35.1885 88.2944 37.2922 112.039 68.8468" stroke="#6C63FF" stroke-width="2" stroke-miterlimit="10"/>
<path d="M24.1982 36.5442C24.9454 36.5442 25.5511 35.9372 25.5511 35.1885C25.5511 34.4398 24.9454 33.8328 24.1982 33.8328C23.4511 33.8328 22.8454 34.4398 22.8454 35.1885C22.8454 35.9372 23.4511 36.5442 24.1982 36.5442Z" fill="#63FFB9"/>
<path d="M36.4203 65.5277C37.1675 65.5277 37.7732 64.9208 37.7732 64.172C37.7732 63.4233 37.1675 62.8163 36.4203 62.8163C35.6732 62.8163 35.0675 63.4233 35.0675 64.172C35.0675 64.9208 35.6732 65.5277 36.4203 65.5277Z" fill="#63FFB9"/>
<path d="M88.2477 36.3572C88.9949 36.3572 89.6006 35.7503 89.6006 35.0016C89.6006 34.2528 88.9949 33.6459 88.2477 33.6459C87.5006 33.6459 86.8949 34.2528 86.8949 35.0016C86.8949 35.7503 87.5006 36.3572 88.2477 36.3572Z" fill="#63FFB9"/>
<path d="M112.039 70.2025C112.786 70.2025 113.392 69.5955 113.392 68.8468C113.392 68.0981 112.786 67.4911 112.039 67.4911C111.292 67.4911 110.686 68.0981 110.686 68.8468C110.686 69.5955 111.292 70.2025 112.039 70.2025Z" fill="#63FFB9"/>
<path d="M67.862 55.8043C68.6091 55.8043 69.2148 55.1973 69.2148 54.4486C69.2148 53.6999 68.6091 53.0929 67.862 53.0929C67.1148 53.0929 66.5092 53.6999 66.5092 54.4486C66.5092 55.1973 67.1148 55.8043 67.862 55.8043Z" fill="#63FFB9"/>
</g>
<defs>
<clipPath id="clip0_11_111">
<rect width="133" height="99" fill="white"/>
</clipPath>
</defs>
</svg>
