<svg width="95" height="79" viewBox="0 0 95 79" fill="none" xmlns="http://www.w3.org/2000/svg">
<path d="M62.4967 0H34.8912C30.5977 0 27.1172 3.4833 27.1172 7.78016V70.9113C27.1172 75.2081 30.5977 78.6914 34.8912 78.6914H62.4967C66.7902 78.6914 70.2707 75.2081 70.2707 70.9113V7.78016C70.2707 3.4833 66.7902 0 62.4967 0Z" fill="#3F3D56"/>
<path d="M69.5428 7.7807V70.9114C69.5406 72.7809 68.7975 74.5733 67.4766 75.8953C66.1556 77.2173 64.3647 77.961 62.4966 77.9631H34.8915C33.0234 77.961 31.2325 77.2173 29.9115 75.8953C28.5906 74.5733 27.8475 72.7809 27.8453 70.9114V7.7807C27.8475 5.91112 28.5906 4.11873 29.9115 2.79674C31.2325 1.47475 33.0234 0.7311 34.8915 0.728935H38.5013V1.97687C38.5014 2.54183 38.7256 3.08365 39.1248 3.48314C39.524 3.88263 40.0654 4.10707 40.6299 4.1071H56.7582C57.3227 4.10707 57.8641 3.88263 58.2633 3.48314C58.6625 3.08365 58.8867 2.54183 58.8868 1.97687V0.728935H62.4966C64.3647 0.7311 66.1556 1.47475 67.4766 2.79674C68.7975 4.11873 69.5406 5.91112 69.5428 7.7807V7.7807Z" fill="white"/>
<path d="M26.9187 15.9635C26.7783 15.9633 26.6437 15.9075 26.5444 15.8081C26.4452 15.7088 26.3893 15.5741 26.3892 15.4336V14.3738C26.3892 14.2332 26.4449 14.0984 26.5442 13.9991C26.6435 13.8997 26.7782 13.8439 26.9187 13.8439C27.0591 13.8439 27.1938 13.8997 27.2931 13.9991C27.3924 14.0984 27.4482 14.2332 27.4482 14.3738V15.4336C27.448 15.5741 27.3922 15.7088 27.2929 15.8081C27.1936 15.9075 27.059 15.9633 26.9187 15.9635V15.9635Z" fill="#3F3D56"/>
<path d="M26.9187 21.3979C26.7783 21.3977 26.6437 21.3419 26.5444 21.2425C26.4452 21.1432 26.3893 21.0085 26.3892 20.868V17.9507C26.3892 17.8101 26.4449 17.6753 26.5442 17.576C26.6435 17.4766 26.7782 17.4207 26.9187 17.4207C27.0591 17.4207 27.1938 17.4766 27.2931 17.576C27.3924 17.6753 27.4482 17.8101 27.4482 17.9507V20.868C27.448 21.0085 27.3922 21.1432 27.2929 21.2425C27.1936 21.3419 27.059 21.3977 26.9187 21.3979V21.3979Z" fill="#3F3D56"/>
<path d="M26.9187 25.7668C26.7783 25.7666 26.6437 25.7108 26.5444 25.6114C26.4452 25.5121 26.3893 25.3774 26.3892 25.2369V22.3196C26.3892 22.179 26.4449 22.0442 26.5442 21.9449C26.6435 21.8455 26.7782 21.7896 26.9187 21.7896C27.0591 21.7896 27.1938 21.8455 27.2931 21.9449C27.3924 22.0442 27.4482 22.179 27.4482 22.3196V25.2369C27.448 25.3774 27.3922 25.5121 27.2929 25.6114C27.1936 25.7108 27.059 25.7666 26.9187 25.7668V25.7668Z" fill="#3F3D56"/>
<path d="M70.3369 23.3822C70.1965 23.3821 70.062 23.3262 69.9627 23.2268C69.8634 23.1275 69.8076 22.9928 69.8074 22.8523V15.7339C69.8074 15.5933 69.8632 15.4585 69.9625 15.3591C70.0618 15.2598 70.1965 15.2039 70.3369 15.2039C70.4774 15.2039 70.612 15.2598 70.7113 15.3591C70.8106 15.4585 70.8664 15.5933 70.8664 15.7339V22.8523C70.8662 22.9928 70.8104 23.1275 70.7111 23.2268C70.6119 23.3262 70.4773 23.3821 70.3369 23.3822V23.3822Z" fill="#3F3D56"/>
<path d="M49.8314 2.4304H45.7278C45.6401 2.4304 45.5559 2.3955 45.4938 2.33339C45.4318 2.27128 45.3969 2.18704 45.3969 2.09921C45.3969 2.01137 45.4318 1.92713 45.4938 1.86502C45.5559 1.80291 45.6401 1.76801 45.7278 1.76801H49.8314C49.9192 1.76801 50.0034 1.80291 50.0654 1.86502C50.1275 1.92713 50.1623 2.01137 50.1623 2.09921C50.1623 2.18704 50.1275 2.27128 50.0654 2.33339C50.0034 2.3955 49.9192 2.4304 49.8314 2.4304Z" fill="white"/>
<path d="M51.9493 2.36416C52.0956 2.36416 52.2141 2.24554 52.2141 2.09921C52.2141 1.95288 52.0956 1.83425 51.9493 1.83425C51.8031 1.83425 51.6846 1.95288 51.6846 2.09921C51.6846 2.24554 51.8031 2.36416 51.9493 2.36416Z" fill="white"/>
<path d="M36.9242 3.85151H33.3501C33.1746 3.85151 33.0062 3.78173 32.8821 3.6575C32.758 3.53328 32.6882 3.3648 32.6882 3.18913C32.6882 3.01345 32.758 2.84497 32.8821 2.72075C33.0062 2.59653 33.1746 2.52674 33.3501 2.52674H36.9242C37.0997 2.52674 37.2681 2.59653 37.3922 2.72075C37.5163 2.84497 37.586 3.01345 37.586 3.18913C37.586 3.3648 37.5163 3.53328 37.3922 3.6575C37.2681 3.78173 37.0997 3.85151 36.9242 3.85151Z" fill="#E6E6E6"/>
<path d="M60.3542 3.78527C60.6831 3.78527 60.9498 3.51837 60.9498 3.18913C60.9498 2.85988 60.6831 2.59298 60.3542 2.59298C60.0252 2.59298 59.7585 2.85988 59.7585 3.18913C59.7585 3.51837 60.0252 3.78527 60.3542 3.78527Z" fill="#E6E6E6"/>
<path d="M62.2074 3.78527C62.5363 3.78527 62.803 3.51837 62.803 3.18913C62.803 2.85988 62.5363 2.59298 62.2074 2.59298C61.8784 2.59298 61.6117 2.85988 61.6117 3.18913C61.6117 3.51837 61.8784 3.78527 62.2074 3.78527Z" fill="#E6E6E6"/>
<path d="M64.0606 3.78527C64.3896 3.78527 64.6563 3.51837 64.6563 3.18913C64.6563 2.85988 64.3896 2.59298 64.0606 2.59298C63.7316 2.59298 63.4649 2.85988 63.4649 3.18913C63.4649 3.51837 63.7316 3.78527 64.0606 3.78527Z" fill="#E6E6E6"/>
<path d="M59.9377 13.1096H37.474C37.0389 13.1102 36.6217 13.2834 36.314 13.5914C36.0063 13.8993 35.8332 14.3168 35.8326 14.7523V29.3658C35.8332 29.8013 36.0063 30.2188 36.314 30.5267C36.6217 30.8347 37.0389 31.0079 37.474 31.0085H59.9377C60.3729 31.0082 60.7902 30.835 61.0979 30.527C61.4057 30.219 61.5787 29.8014 61.5791 29.3658V14.7523C61.5787 14.3167 61.4057 13.8991 61.0979 13.5911C60.7902 13.2831 60.3729 13.1099 59.9377 13.1096V13.1096Z" fill="#F2F2F2"/>
<path d="M52.9051 19.3481C50.875 22.9402 48.6348 26.4092 46.1962 29.737H42.6735C44.9809 26.9238 47.2899 24.1105 49.6007 21.2973C50.2637 20.4873 50.9831 19.6387 51.9775 19.3096L52.9051 19.3481Z" fill="#3F3D56"/>
<path d="M48.2235 18.7721C47.856 19.1553 47.504 19.5539 47.1726 19.9679C46.4428 20.8473 45.7234 21.7345 45.0014 22.6191C44.5517 23.1694 44.1021 23.7197 43.6576 24.27C43.5164 24.1792 43.3824 24.0778 43.2567 23.9665C42.5467 23.3498 42.1064 22.4793 42.03 21.5416C41.9536 20.6038 42.2472 19.6734 42.848 18.9497C43.4488 18.2261 44.3089 17.7667 45.2441 17.67C46.1792 17.5734 47.115 17.8472 47.8509 18.4327C47.9835 18.5362 48.1081 18.6497 48.2235 18.7721V18.7721Z" fill="#63FFD0"/>
<path d="M61.5791 18.3543V18.8882L61.3408 18.8008L57.9878 17.574C56.8957 17.1753 55.8063 16.7196 54.6785 16.4321C53.6973 16.1512 52.6553 16.1645 51.6816 16.4705C50.8136 16.7919 50.0194 17.2853 49.3465 17.9211C49.0487 18.1967 48.7601 18.4789 48.4808 18.7716C48.3894 18.8683 48.2981 18.965 48.2081 19.0618C47.938 19.3559 47.6773 19.6566 47.4297 19.9679C46.7004 20.8476 45.9803 21.7351 45.2588 22.6188C44.8088 23.1699 44.3587 23.7197 43.9139 24.2694C42.4287 26.0883 40.9523 27.9108 39.4847 29.7368C39.2871 29.7346 39.0903 29.7097 38.8983 29.6626C40.3955 27.8013 41.8996 25.9448 43.4109 24.0932C43.4453 24.0509 43.4797 24.0085 43.5142 23.9661C43.6915 23.7448 43.8729 23.5223 44.0529 23.301C44.8061 22.3777 45.5598 21.4552 46.3138 20.5336C46.8619 19.8632 47.4059 19.1903 47.9963 18.5544C48.032 18.5133 48.0691 18.4736 48.1075 18.4325C48.1644 18.3716 48.2213 18.3119 48.2796 18.2497C49.5623 16.9236 51.1627 15.7511 53.0794 15.7194C54.2072 15.7021 55.2967 16.0598 56.3451 16.4374C57.4742 16.8467 58.5994 17.2627 59.7272 17.6761L61.5791 18.3543Z" fill="#3F3D56"/>
<path d="M62.1073 63.2735H35.2808C34.8456 63.273 34.4284 63.0998 34.1207 62.7918C33.813 62.4839 33.64 62.0664 33.6395 61.6309V58.0126C33.64 57.5771 33.813 57.1596 34.1207 56.8516C34.4284 56.5437 34.8456 56.3705 35.2808 56.37H62.1073C62.5424 56.3705 62.9596 56.5437 63.2673 56.8516C63.575 57.1596 63.7481 57.5771 63.7486 58.0126V61.6309C63.7481 62.0664 63.575 62.4839 63.2673 62.7918C62.9596 63.0998 62.5424 63.273 62.1073 63.2735Z" fill="#F2F2F2"/>
<path d="M62.1073 44.7267H35.2808C34.8456 44.7262 34.4284 44.553 34.1207 44.2451C33.813 43.9371 33.64 43.5196 33.6395 43.0841V39.4658C33.64 39.0303 33.813 38.6128 34.1207 38.3048C34.4284 37.9969 34.8456 37.8237 35.2808 37.8232H62.1073C62.5424 37.8237 62.9596 37.9969 63.2673 38.3048C63.575 38.6128 63.7481 39.0303 63.7486 39.4658V43.0841C63.7481 43.5196 63.575 43.9371 63.2673 44.2451C62.9596 44.553 62.5424 44.7262 62.1073 44.7267V44.7267Z" fill="#F2F2F2"/>
<path d="M62.1073 54.0001H35.2808C34.8456 53.9996 34.4284 53.8264 34.1207 53.5184C33.813 53.2105 33.64 52.793 33.6395 52.3575V48.7392C33.64 48.3037 33.813 47.8862 34.1207 47.5782C34.4284 47.2703 34.8456 47.0971 35.2808 47.0966H62.1073C62.5424 47.0971 62.9596 47.2703 63.2673 47.5782C63.575 47.8862 63.7481 48.3037 63.7486 48.7392V52.3575C63.7481 52.793 63.575 53.2105 63.2673 53.5184C62.9596 53.8264 62.5424 53.9996 62.1073 54.0001V54.0001Z" fill="#F2F2F2"/>
<path d="M51.9532 59.2025H44.049C43.9552 59.2025 43.8653 59.1652 43.799 59.0988C43.7327 59.0325 43.6954 58.9424 43.6954 58.8486C43.6954 58.7547 43.7327 58.6647 43.799 58.5984C43.8653 58.532 43.9552 58.4947 44.049 58.4947H51.9532C52.047 58.4947 52.1369 58.532 52.2032 58.5984C52.2696 58.6647 52.3068 58.7547 52.3068 58.8486C52.3068 58.9424 52.2696 59.0325 52.2032 59.0988C52.1369 59.1652 52.047 59.2025 51.9532 59.2025V59.2025Z" fill="white"/>
<path d="M59.5554 61.1487H43.9607C43.8669 61.1487 43.7769 61.1114 43.7106 61.0451C43.6443 60.9787 43.6071 60.8887 43.6071 60.7949C43.6071 60.701 43.6443 60.611 43.7106 60.5447C43.7769 60.4783 43.8669 60.441 43.9607 60.441H59.5554C59.6492 60.441 59.7391 60.4783 59.8055 60.5447C59.8718 60.611 59.909 60.701 59.909 60.7949C59.909 60.8887 59.8718 60.9787 59.8055 61.0451C59.7391 61.1114 59.6492 61.1487 59.5554 61.1487V61.1487Z" fill="white"/>
<path d="M39.8498 62.1943C41.1591 62.1943 42.2205 61.1321 42.2205 59.8217C42.2205 58.5114 41.1591 57.4491 39.8498 57.4491C38.5405 57.4491 37.4791 58.5114 37.4791 59.8217C37.4791 61.1321 38.5405 62.1943 39.8498 62.1943Z" fill="white"/>
<path d="M39.3215 63.0266C39.0796 62.9134 38.8031 62.8992 38.5509 62.987C38.2986 63.0747 38.0906 63.2575 37.971 63.4965C37.9474 63.5454 37.928 63.5962 37.9128 63.6484L34.3428 63.8619L33.8137 65.7129L38.6726 64.8913C38.8936 64.9375 39.1236 64.9092 39.3269 64.8108C39.5301 64.7124 39.6951 64.5494 39.796 64.3473C39.8524 64.2318 39.8854 64.1062 39.8933 63.9779C39.9011 63.8496 39.8837 63.7209 39.8419 63.5993C39.8001 63.4778 39.7347 63.3656 39.6496 63.2693C39.5645 63.173 39.4613 63.0944 39.3458 63.038C39.3378 63.0341 39.3297 63.0303 39.3215 63.0266Z" fill="#FFB6B6"/>
<path d="M31.4415 53.8962C31.2063 53.7999 30.953 53.7554 30.6991 53.7657C30.4451 53.7761 30.1963 53.8411 29.9697 53.9562C29.7431 54.0714 29.5439 54.2341 29.3857 54.4331C29.2275 54.6322 29.1139 54.8631 29.0528 55.11L28.0714 59.0768L28.256 66.0165C28.256 66.0165 33.3791 67.0003 34.2391 66.3679C35.0992 65.7355 35.0184 65.2647 35.0992 65.7355C35.1799 66.2063 35.5491 66.4038 35.5542 66.2165C35.5593 66.0292 35.6011 66.0613 35.8154 66.0048C36.0297 65.9484 36.9756 65.5995 36.9756 65.5995L37.018 63.6209C37.018 63.6209 35.4542 63.0276 35.0748 63.2046C34.6954 63.3817 35.1555 63.6754 34.6954 63.3817C34.2353 63.0879 34.185 62.1608 34.1063 62.9963C34.0276 63.8319 33.7973 63.9875 33.4523 63.6159C33.1073 63.2444 31.509 63.4817 31.509 63.4817L32.5261 55.7676C32.5772 55.3796 32.4986 54.9855 32.3024 54.647C32.1061 54.3084 31.8034 54.0444 31.4415 53.8962V53.8962Z" fill="#63FFD0"/>
<path d="M65.9424 74.4757L65.9963 73.0145L60.3901 72.1111L60.3106 74.2677L65.9424 74.4757Z" fill="#FFB6B6"/>
<path d="M64.9248 74.9156L64.8716 72.576L65.871 72.6129L67.4845 70.45C67.5642 70.3432 67.6759 70.2646 67.8033 70.2258C67.9308 70.187 68.0673 70.19 68.1929 70.2344C68.3185 70.2787 68.4267 70.3621 68.5016 70.4723C68.5766 70.5825 68.6143 70.7138 68.6094 70.847L68.5069 73.6263L67.5007 74.0689L68.4824 74.2924L68.4437 75.3403L64.9248 74.9156Z" fill="#2F2E41"/>
<path d="M34.3901 77.8267L52.147 75.7602C52.147 75.7602 59.8151 76.2035 61.6142 75.0322L63.5114 74.7925L63.6142 72.0035C63.6142 72.0035 62.4541 72.012 61.787 71.701C61.12 71.39 61.5836 71.0094 60.9476 71.3836C60.3117 71.7578 60.3789 71.8028 59.8872 71.6308C59.3955 71.4589 36.8477 70.5364 36.8477 70.5364L34.3901 77.8267Z" fill="#2F2E41"/>
<path d="M57.7891 76.6164L58.8216 75.5818L55.3256 71.1037L53.8017 72.6306L57.7891 76.6164Z" fill="#FFB6B6"/>
<path d="M56.744 76.2463L58.295 74.4949L59.0026 75.2022L61.6554 74.7148C61.7864 74.6907 61.9217 74.7092 62.0415 74.7675C62.1612 74.8258 62.2593 74.9209 62.3212 75.0389C62.3832 75.1569 62.4059 75.2917 62.3859 75.4235C62.3659 75.5553 62.3043 75.6773 62.2102 75.7716L60.2463 77.7393L59.2079 77.3789L59.7756 78.2109L59.0351 78.9529L56.744 76.2463Z" fill="#2F2E41"/>
<path d="M27.3845 68.0942L27.5611 72.2009C27.7689 77.0355 33.0889 79.9615 37.2141 77.4373C37.2901 77.3908 37.3664 77.3426 37.443 77.2927C37.443 77.2927 39.0068 76.8724 38.9594 76.2068C38.9119 75.5411 39.2939 75.2172 39.6321 75.3987C39.9702 75.5802 44.397 69.2928 44.397 69.2928C44.397 69.2928 53.5944 73.8843 55.6235 74.9651L57.7644 74.3814C57.7644 74.3814 58.5702 74.7622 58.2799 74.2114C57.9897 73.6606 57.9376 73.9244 57.8484 73.3242C57.7593 72.7241 57.5312 71.98 57.3929 72.0113C57.2545 72.0426 46.0145 64.1694 46.0145 64.1694C46.0145 64.1694 44.1833 62.3147 41.9119 63.5392C41.8646 63.7191 41.905 63.7254 41.905 63.7254L34.4015 69.8443L33.3413 67.8292L27.3845 68.0942Z" fill="#2F2E41"/>
<path d="M32.4278 53.0047L29.2106 51.4957L28.2475 53.1729C28.2475 53.1729 25.6606 56.8673 25.6231 59.5325C25.5856 62.1977 26.0447 62.9902 26.0447 62.9902C26.0447 62.9902 24.9294 63.8247 25.487 64.3348C26.0447 64.8449 27.2793 65.065 26.3311 65.2862C25.3828 65.5073 25.6231 67.7461 26.6821 68.1435C27.7411 68.5409 33.4284 68.5375 33.4284 68.5375C33.3773 68.3639 33.3735 68.1798 33.4175 68.0043C33.4615 67.8287 33.5516 67.6682 33.6785 67.5393C34.1194 67.097 34.5166 67.4144 34.1194 66.7258C33.7223 66.0372 33.0605 66.4346 33.5899 65.5073C34.1194 64.58 34.1192 64.3028 34.1192 64.3028C34.1192 64.3028 35.1987 62.2469 33.5728 60.0166C33.4737 59.8806 33.557 59.8754 33.557 59.8754L32.2441 55.4724L32.4278 53.0047Z" fill="#63FFD0"/>
<path d="M27.2431 46.6599C27.2704 47.34 26.8421 48.3036 26.6312 48.8846C26.4057 49.5057 27.383 50.3303 28.0085 50.5108C28.041 50.2956 28.1483 50.0988 28.3114 49.9549C28.2664 50.16 28.2624 50.372 28.2999 50.5786L33.5879 51.7834C34.5392 50.6809 35.4957 49.0958 35.2871 47.1842C35.3371 46.8212 35.2788 46.4515 35.1196 46.1216C34.9603 45.7916 34.7073 45.5161 34.3921 45.3295L31.7188 43.749C30.5817 43.4899 29.1497 43.3335 28.3284 44.0377C27.9614 44.3644 27.6732 44.77 27.4852 45.2242C27.2973 45.6783 27.2145 46.1692 27.2431 46.6599V46.6599Z" fill="#2F2E41"/>
<path d="M31.9699 51.2009C33.6513 51.2009 35.0144 49.8367 35.0144 48.1539C35.0144 46.4711 33.6513 45.107 31.9699 45.107C30.2884 45.107 28.9253 46.4711 28.9253 48.1539C28.9253 49.8367 30.2884 51.2009 31.9699 51.2009Z" fill="#FFB6B6"/>
<path d="M28.4031 46.5261L28.2562 47.172L30.8247 47.7572C30.827 47.6265 30.8562 47.4978 30.9106 47.379C30.9649 47.2602 31.0433 47.154 31.1406 47.0669C31.0852 47.3202 31.0915 47.583 31.159 47.8333C32.5442 48.6112 33.7927 48.8868 34.9123 48.6884C35.0639 48.723 35.2231 48.6958 35.3548 48.6129C35.4865 48.53 35.5798 48.3982 35.6144 48.2464V48.2464C36.0648 46.2662 34.8847 44.2423 32.9158 43.7508C32.4372 43.631 31.9395 43.6081 31.452 43.6834C30.9644 43.7586 30.4968 43.9305 30.0765 44.189C29.6562 44.4475 29.2917 44.7874 29.0043 45.1887C28.717 45.59 28.5126 46.0447 28.4031 46.5261V46.5261Z" fill="#2F2E41"/>
<path d="M29.9048 42.2649C30.2435 42.1914 30.6019 42.2091 30.9082 41.9796L30.7073 42.4409C31.2641 42.2882 31.8577 42.3476 32.3733 42.6074C32.5266 42.6762 32.6573 42.787 32.7504 42.927C32.8005 43.0115 32.8309 43.1062 32.8395 43.2041C32.8481 43.302 32.8346 43.4005 32.8 43.4925C32.7671 43.5714 32.7181 43.6426 32.6562 43.7015C32.5942 43.7604 32.5207 43.8057 32.4402 43.8345C32.2977 43.8774 32.1483 43.893 32 43.8806C31.3749 43.866 30.7498 43.8515 30.1248 43.8369C29.8866 43.8517 29.6485 43.8054 29.4332 43.7024C29.3187 43.6316 29.2273 43.529 29.1703 43.407C29.1133 43.285 29.0932 43.149 29.1123 43.0157C29.1719 42.5964 29.5662 42.3385 29.9048 42.2649Z" fill="#2F2E41"/>
<path d="M46.4203 66.1453C46.413 66.1366 46.4046 66.1289 46.3954 66.1224C46.3726 66.0959 46.3449 66.0742 46.3138 66.0585L46.091 65.9391L44.612 64.2958C44.5264 64.2511 44.4267 64.2416 44.3342 64.2692L44.3304 64.2703L43.6968 64.4664L43.1519 64.6357L42.3908 64.8718L37.2062 66.4784L33.7983 67.5344C33.7062 67.5636 33.6292 67.6278 33.5839 67.7132C33.5386 67.7987 33.5286 67.8985 33.5561 67.9912C33.5722 68.0422 33.5987 68.0894 33.634 68.1295L33.7424 68.2503L33.9699 68.5039L34.4969 69.5969L34.6431 69.7602C34.6897 69.8122 34.7501 69.8499 34.8173 69.8687C34.8845 69.8876 34.9556 69.8869 35.0224 69.8668L46.2496 66.7423C46.3079 66.7234 46.3607 66.6905 46.4033 66.6463C46.4459 66.6022 46.477 66.5483 46.4938 66.4893C46.5107 66.4303 46.5128 66.3681 46.5 66.3081C46.4872 66.2481 46.4598 66.1922 46.4203 66.1453V66.1453Z" fill="#CCCCCC"/>
<path d="M45.7537 49.8896L45.5363 49.9249C45.4767 49.9348 45.4234 49.9678 45.3881 50.0169L45.2923 50.151L44.4283 52.3132C44.3931 52.3627 44.379 52.4241 44.389 52.4839L44.4903 53.1L44.1077 64.0963C44.1173 64.1532 44.1478 64.2044 44.1933 64.2399L45.8708 66.4857L45.91 66.5168L45.9945 66.5831C46.0378 66.6165 46.0915 66.6337 46.1462 66.6314L46.2888 66.6246C46.3212 66.623 46.3529 66.6145 46.3817 66.5998C46.4106 66.5851 46.436 66.5644 46.4563 66.5391C46.4768 66.514 46.4916 66.4848 46.4998 66.4535C46.5081 66.4222 46.5094 66.3895 46.5039 66.3576L46.0172 50.0777C46.0074 50.0179 45.9742 49.9645 45.925 49.9292C45.8758 49.8939 45.8146 49.8796 45.7548 49.8894L45.7537 49.8896Z" fill="#CCCCCC"/>
<path d="M45.3897 50.744L44.6243 53.0774L44.3282 62.3977L45.5195 63.4575L45.3897 50.744Z" fill="#63FFD0"/>
<path d="M39.4709 64.961C39.229 64.8479 38.9525 64.8337 38.7002 64.9215C38.448 65.0092 38.2399 65.192 38.1203 65.431C38.0968 65.4799 38.0773 65.5307 38.0622 65.5829L34.4922 65.7964L33.9631 67.6474L38.8219 66.8258C39.0429 66.872 39.273 66.8437 39.4762 66.7453C39.6795 66.6469 39.8444 66.4839 39.9454 66.2818C40.0592 66.0484 40.0757 65.7794 39.9912 65.5338C39.9068 65.2883 39.7284 65.0864 39.4952 64.9725C39.4871 64.9686 39.479 64.9648 39.4709 64.961Z" fill="#FFB6B6"/>
<path d="M31.5908 55.8307C31.3556 55.7344 31.1024 55.6899 30.8484 55.7002C30.5945 55.7106 30.3457 55.7756 30.1191 55.8907C29.8924 56.0059 29.6932 56.1686 29.535 56.3677C29.3768 56.5667 29.2633 56.7976 29.2022 57.0445L28.2207 61.0113L28.4053 67.951C28.4053 67.951 33.5284 68.9348 34.3885 68.3024C35.2485 67.67 35.1678 67.1993 35.2485 67.67C35.3293 68.1408 35.6984 68.3383 35.7035 68.1511C35.7086 67.9638 35.7504 67.9958 35.9647 67.9394C36.179 67.883 37.125 67.5341 37.125 67.5341L37.1673 65.5555C37.1673 65.5555 35.6035 64.9621 35.2241 65.1392C34.8447 65.3162 35.3049 65.6099 34.8447 65.3162C34.3846 65.0224 34.3343 64.0953 34.2556 64.9309C34.177 65.7664 33.9466 65.922 33.6017 65.5505C33.2567 65.1789 31.6584 65.4163 31.6584 65.4163L32.6754 57.7021C32.7266 57.3141 32.6479 56.92 32.4517 56.5815C32.2555 56.2429 31.9528 55.9789 31.5908 55.8307V55.8307Z" fill="#63FFD0"/>
<path d="M83.5517 44.7267H56.7251C56.29 44.7262 55.8728 44.553 55.5651 44.2451C55.2574 43.9371 55.0843 43.5196 55.0838 43.0841V39.4658C55.0843 39.0303 55.2574 38.6128 55.5651 38.3048C55.8728 37.9969 56.29 37.8237 56.7251 37.8232H83.5517C83.9868 37.8237 84.404 37.9969 84.7117 38.3048C85.0194 38.6128 85.1925 39.0303 85.193 39.4658V43.0841C85.1925 43.5196 85.0194 43.9371 84.7117 44.2451C84.404 44.553 83.9868 44.7262 83.5517 44.7267V44.7267Z" fill="#E6E6E6"/>
<path d="M73.3976 40.6557H65.4934C65.3996 40.6557 65.3097 40.6184 65.2434 40.552C65.1771 40.4857 65.1398 40.3957 65.1398 40.3018C65.1398 40.208 65.1771 40.1179 65.2434 40.0516C65.3097 39.9852 65.3996 39.9479 65.4934 39.9479H73.3976C73.4914 39.9479 73.5813 39.9852 73.6476 40.0516C73.714 40.1179 73.7512 40.208 73.7512 40.3018C73.7512 40.3957 73.714 40.4857 73.6476 40.552C73.5813 40.6184 73.4914 40.6557 73.3976 40.6557V40.6557Z" fill="white"/>
<path d="M80.9998 42.6019H65.405C65.3112 42.6019 65.2213 42.5647 65.155 42.4983C65.0886 42.4319 65.0514 42.3419 65.0514 42.2481C65.0514 42.1542 65.0886 42.0642 65.155 41.9979C65.2213 41.9315 65.3112 41.8942 65.405 41.8942H80.9998C81.0936 41.8942 81.1835 41.9315 81.2498 41.9979C81.3161 42.0642 81.3534 42.1542 81.3534 42.2481C81.3534 42.3419 81.3161 42.4319 81.2498 42.4983C81.1835 42.5647 81.0936 42.6019 80.9998 42.6019V42.6019Z" fill="white"/>
<path d="M61.2942 43.6475C62.6035 43.6475 63.6649 42.5853 63.6649 41.2749C63.6649 39.9646 62.6035 38.9023 61.2942 38.9023C59.9849 38.9023 58.9235 39.9646 58.9235 41.2749C58.9235 42.5853 59.9849 43.6475 61.2942 43.6475Z" fill="white"/>
<path d="M74.9474 54.0001H48.1209C47.6858 53.9996 47.2686 53.8264 46.9609 53.5184C46.6532 53.2105 46.4801 52.793 46.4796 52.3575V48.7392C46.4801 48.3037 46.6532 47.8862 46.9609 47.5782C47.2686 47.2703 47.6858 47.0971 48.1209 47.0966H74.9474C75.3826 47.0971 75.7997 47.2703 76.1074 47.5782C76.4151 47.8862 76.5882 48.3037 76.5887 48.7392V52.3575C76.5882 52.793 76.4151 53.2105 76.1074 53.5184C75.7997 53.8264 75.3826 53.9996 74.9474 54.0001V54.0001Z" fill="#E6E6E6"/>
<path d="M64.7934 49.9291H56.8892C56.7954 49.9291 56.7055 49.8918 56.6391 49.8254C56.5728 49.7591 56.5356 49.6691 56.5356 49.5752C56.5356 49.4813 56.5728 49.3913 56.6391 49.325C56.7055 49.2586 56.7954 49.2213 56.8892 49.2213H64.7934C64.8871 49.2213 64.9771 49.2586 65.0434 49.325C65.1097 49.3913 65.147 49.4813 65.147 49.5752C65.147 49.6691 65.1097 49.7591 65.0434 49.8254C64.9771 49.8918 64.8871 49.9291 64.7934 49.9291V49.9291Z" fill="white"/>
<path d="M72.3956 51.8754H56.8007C56.707 51.8754 56.617 51.8381 56.5507 51.7717C56.4844 51.7053 56.4471 51.6153 56.4471 51.5215C56.4471 51.4276 56.4844 51.3376 56.5507 51.2713C56.617 51.2049 56.707 51.1676 56.8007 51.1676H72.3956C72.4893 51.1676 72.5793 51.2049 72.6456 51.2713C72.7119 51.3376 72.7491 51.4276 72.7491 51.5215C72.7491 51.6153 72.7119 51.7053 72.6456 51.7717C72.5793 51.8381 72.4893 51.8754 72.3956 51.8754V51.8754Z" fill="white"/>
<path d="M52.69 52.9209C53.9993 52.9209 55.0607 51.8587 55.0607 50.5483C55.0607 49.238 53.9993 48.1758 52.69 48.1758C51.3806 48.1758 50.3192 49.238 50.3192 50.5483C50.3192 51.8587 51.3806 52.9209 52.69 52.9209Z" fill="white"/>
</svg>
